<svg xmlns="http://www.w3.org/2000/svg" viewBox="0 0 64 64">
  <circle cx="32" cy="32" r="30" fill="#ffffff"/>
  <path d="M2 32a30 30 0 0 1 60 0z" fill="#ee1515"/>
  <path d="M2 32a30 30 0 0 0 60 0h-19a11 11 0 0 1-22 0z" fill="#ffffff"/>
  <path d="M32 2a30 30 0 0 0-30 30h19a11 11 0 0 1 22 0h19A30 30 0 0 0 32 2zm0 19a11 11 0 0 0-11 11h22a11 11 0 0 0-11-11z" fill="none"/>
  <circle cx="32" cy="32" r="30" fill="none" stroke="#222224" stroke-width="4"/>
  <rect x="2" y="29" width="19.5" height="6" fill="#222224"/>
  <rect x="42.5" y="29" width="19.5" height="6" fill="#222224"/>
  <circle cx="32" cy="32" r="11" fill="#222224"/>
  <circle cx="32" cy="32" r="7.5" fill="#ffffff"/>
  <circle cx="32" cy="32" r="4" fill="#f4f4f4" stroke="#222224" stroke-width="2"/>
</svg>
